<svg width="289" height="280" viewBox="0 0 289 280" fill="none" xmlns="http://www.w3.org/2000/svg">
<path d="M161.962 169.551V149.676C161.962 141.84 155.382 135.464 147.294 135.464C139.206 135.464 132.625 141.84 132.625 149.676V167.62C132.625 189.244 124.403 210.005 109.472 226.079L88.8853 248.24C87.1557 250.102 87.3117 252.97 89.2336 254.646C91.1548 256.322 94.1147 256.171 95.845 254.309L116.431 232.147C132.912 214.405 141.988 191.489 141.988 167.62V149.676C141.988 146.842 144.368 144.536 147.294 144.536C150.219 144.536 152.599 146.842 152.599 149.676V169.551C152.599 196.161 142.425 221.66 123.949 241.351L103.881 262.737C102.142 264.59 102.284 267.46 104.197 269.145C105.094 269.935 106.22 270.324 107.344 270.324C108.617 270.324 109.886 269.824 110.809 268.839L130.876 247.453C150.922 226.089 161.962 198.423 161.962 169.551Z" fill="black"/>
<path d="M181.936 149.676C181.936 131.169 166.396 116.112 147.294 116.112C128.192 116.112 112.651 131.169 112.651 149.676V167.62C112.651 184.456 106.249 200.619 94.6252 213.133L79.9898 228.888C78.2601 230.75 78.4162 233.618 80.3381 235.294C82.26 236.97 85.2193 236.818 86.9495 234.957L101.585 219.201C114.759 205.019 122.015 186.701 122.015 167.62V149.676C122.015 136.171 133.355 125.184 147.294 125.184C161.234 125.184 172.574 136.171 172.574 149.676V169.551C172.574 200.985 160.555 231.108 138.729 254.368L121.797 272.413C120.058 274.266 120.199 277.136 122.112 278.821C123.009 279.611 124.136 280 125.259 280C126.533 280 127.801 279.5 128.725 278.515L145.656 260.47C169.052 235.536 181.936 203.247 181.936 169.551V149.676Z" fill="black"/>
<path d="M201.91 149.676C201.91 120.498 177.409 96.7603 147.294 96.7603C117.178 96.7603 92.6769 120.498 92.6769 149.676V167.62C92.6769 179.667 88.096 191.233 79.778 200.187L66.6001 214.373C64.8705 216.235 65.0266 219.103 66.9484 220.779C68.8697 222.455 71.8302 222.302 73.5598 220.442L86.7377 206.255C96.6056 195.633 102.04 181.912 102.04 167.62V149.676C102.04 125.5 122.34 105.832 147.294 105.832C172.247 105.832 192.547 125.5 192.547 149.676V169.551C192.547 205.81 178.683 240.556 153.507 267.385L148.822 272.38C147.083 274.233 147.224 277.102 149.137 278.787C150.034 279.577 151.161 279.966 152.284 279.966C153.557 279.966 154.826 279.466 155.749 278.481L160.435 273.487C187.18 244.984 201.91 208.072 201.91 169.551V149.676H201.91Z" fill="black"/>
<path d="M72.7031 149.676C72.7031 152.182 74.7992 154.212 77.3846 154.212C79.9699 154.212 82.066 152.182 82.066 149.676C82.066 134.403 87.7892 119.649 98.1819 108.133C108.478 96.7228 122.609 89.2613 137.972 87.1229C140.531 86.7667 142.307 84.4675 141.94 81.9886C141.572 79.5091 139.197 77.7904 136.64 78.1442C119.063 80.591 102.901 89.1204 91.133 102.163C79.2484 115.332 72.7031 132.207 72.7031 149.676Z" fill="black"/>
<path d="M82.0655 167.62C82.0655 165.115 79.9695 163.085 77.3841 163.085C74.7987 163.085 72.7027 165.115 72.7027 167.62C72.7027 174.878 69.9431 181.846 64.9321 187.24L53.2105 199.86C51.4809 201.721 51.6369 204.589 53.5588 206.265C54.4539 207.045 55.573 207.429 56.6891 207.429C57.9699 207.429 59.2464 206.922 60.1702 205.928L71.8919 193.309C78.4521 186.246 82.0655 177.123 82.0655 167.62Z" fill="black"/>
<path d="M212.695 208.109C210.193 207.478 207.636 208.926 206.981 211.349C205.253 217.746 203.103 224.106 200.589 230.252C199.637 232.581 200.813 235.217 203.217 236.139C203.783 236.356 204.366 236.459 204.941 236.459C206.804 236.459 208.566 235.374 209.294 233.593C211.946 227.107 214.215 220.396 216.039 213.645C216.693 211.222 215.196 208.743 212.695 208.109Z" fill="black"/>
<path d="M197.113 95.933C195.19 94.2572 192.23 94.4108 190.502 96.2734C188.773 98.1361 188.931 101.004 190.853 102.678C204.623 114.672 212.521 131.801 212.521 149.676V169.551C212.521 177.094 211.984 184.695 210.925 192.144C210.572 194.625 212.362 196.914 214.923 197.255C215.14 197.284 215.355 197.298 215.568 197.298C217.87 197.298 219.877 195.652 220.199 193.381C221.317 185.523 221.884 177.505 221.884 169.55V149.676C221.884 129.232 212.855 109.644 197.113 95.933Z" fill="black"/>
<path d="M175.228 92.573C175.878 92.8729 176.563 93.0144 177.237 93.0144C178.987 93.0144 180.665 92.0595 181.468 90.4273C182.579 88.1661 181.587 85.4593 179.254 84.3828C172.509 81.2714 165.34 79.1723 157.946 78.1436C155.383 77.7898 153.014 79.5091 152.647 81.988C152.279 84.4669 154.056 86.7661 156.615 87.1223C163.074 88.0216 169.336 89.8552 175.228 92.573Z" fill="black"/>
<path d="M147.294 58.0562C145.542 58.0562 143.771 58.1033 142.028 58.1965C139.446 58.3343 137.468 60.474 137.611 62.9746C137.754 65.4759 139.96 67.402 142.543 67.2532C144.115 67.1692 145.713 67.1268 147.293 67.1268C194.273 67.1268 232.495 104.158 232.495 149.675V169.55C232.495 172.055 234.591 174.086 237.177 174.086C239.762 174.086 241.858 172.055 241.858 169.55V149.676C241.859 99.1569 199.437 58.0562 147.294 58.0562Z" fill="black"/>
<path d="M96.1078 82.6653C97.0297 82.6653 97.9616 82.4017 98.7762 81.8531C106.565 76.6057 115.119 72.6881 124.201 70.2068C126.69 69.5271 128.139 67.021 127.437 64.6105C126.736 62.1999 124.148 60.7981 121.661 61.4754C111.574 64.2307 102.076 68.5807 93.4312 74.4044C91.3084 75.8346 90.784 78.6613 92.2603 80.7174C93.1697 81.9862 94.6266 82.6653 96.1078 82.6653Z" fill="black"/>
<path d="M62.0912 167.62V149.676C62.0912 128.576 70.3386 108.482 85.3142 93.0924C87.0875 91.2697 87.0008 88.3996 85.1194 86.6809C83.2381 84.9621 80.2751 85.0474 78.5018 86.8695C61.8815 103.948 52.7283 126.254 52.7283 149.676V167.62C52.7283 170.089 51.7896 172.459 50.0855 174.294L44.313 180.507C42.5834 182.369 42.7394 185.237 44.6613 186.913C45.5558 187.694 46.6756 188.078 47.7916 188.078C49.0725 188.078 50.3483 187.572 51.2727 186.577L57.0452 180.363C60.2992 176.859 62.0912 172.334 62.0912 167.62Z" fill="black"/>
<path d="M255.887 114.361C250.752 99.5772 242.592 86.2213 231.634 74.6638C229.884 72.8194 226.923 72.6972 225.019 74.3923C223.115 76.0874 222.99 78.9564 224.739 80.8015C234.805 91.4173 242.3 103.682 247.014 117.253C247.671 119.148 249.495 120.344 251.45 120.344C251.945 120.344 252.448 120.267 252.943 120.105C255.393 119.307 256.712 116.735 255.887 114.361Z" fill="black"/>
<path d="M184.29 44.644C181.845 43.833 179.182 45.0963 178.345 47.4669C177.508 49.837 178.813 52.4156 181.259 53.226C191.582 56.6483 201.274 61.606 210.065 67.9632C210.906 68.571 211.888 68.8637 212.862 68.8637C214.289 68.8637 215.698 68.2341 216.617 67.0403C218.164 65.0332 217.737 62.1908 215.666 60.6929C206.092 53.7721 195.536 48.3717 184.29 44.644Z" fill="black"/>
<path d="M74.5542 76.1431C94.2467 57.8499 120.079 47.7754 147.294 47.7754C152.347 47.7754 157.428 48.1279 162.396 48.8222C164.957 49.1838 167.329 47.4603 167.699 44.9808C168.068 42.5013 166.294 40.2021 163.735 39.8441C158.324 39.0881 152.793 38.7041 147.294 38.7041C117.653 38.7041 89.5185 49.6749 68.0744 69.5954C46.6972 89.4543 34.1953 116.104 32.872 144.635C32.7559 147.138 34.7558 149.258 37.3381 149.37C37.4099 149.374 37.481 149.375 37.5522 149.375C40.0408 149.375 42.1125 147.476 42.2255 145.043C43.4395 118.85 54.9209 94.3812 74.5542 76.1431Z" fill="black"/>
<path d="M147.293 19.3521C136.824 19.3521 126.392 20.5277 116.287 22.8463C113.771 23.4232 112.215 25.8676 112.811 28.3048C113.407 30.7419 115.93 32.2502 118.445 31.6727C127.844 29.5173 137.55 28.4233 147.293 28.4233C181.621 28.4233 213.665 41.674 237.52 65.7335C238.439 66.6606 239.667 67.1274 240.897 67.1274C242.063 67.1274 243.232 66.7077 244.14 65.8629C246.004 64.1273 246.064 61.2559 244.272 59.4501C231.843 46.9142 217.243 37.0525 200.878 30.1408C183.927 22.9818 165.899 19.3521 147.293 19.3521Z" fill="black"/>
<path d="M42.1372 75.8383C42.9936 76.4878 44.0104 76.8029 45.0203 76.8029C46.4104 76.8029 47.7861 76.206 48.7093 75.0636C62.0514 58.5527 79.6161 45.6019 99.504 37.6101C101.892 36.6504 103.026 33.9967 102.035 31.6829C101.045 29.3692 98.3043 28.2697 95.9174 29.2307C74.5445 37.8187 55.6709 51.7335 41.3376 69.4702C39.7434 71.4435 40.1017 74.2943 42.1372 75.8383Z" fill="black"/>
<path d="M82.3819 23.419C83.0648 23.419 83.7583 23.2739 84.4137 22.9667C104.124 13.746 125.28 9.07127 147.293 9.07127C158.765 9.07127 170.19 10.3787 181.25 12.9574C183.762 13.5416 186.291 12.0442 186.896 9.6089C187.501 7.17356 185.954 4.72372 183.44 4.13771C171.664 1.39214 159.502 0 147.293 0C123.859 0 101.334 4.97832 80.3433 14.7977C78.0151 15.8868 77.0389 18.5985 78.163 20.8543C78.9701 22.4744 80.6417 23.419 82.3819 23.419Z" fill="black"/>
<path d="M200.816 18.9789C205.643 20.8409 210.419 22.9818 215.014 25.3409C215.713 25.7001 216.463 25.8701 217.202 25.8701C218.88 25.8701 220.502 24.9938 221.342 23.4571C222.552 21.2437 221.682 18.4987 219.398 17.3255C214.506 14.814 209.42 12.5347 204.28 10.5517C201.877 9.62462 199.155 10.7603 198.198 13.0868C197.242 15.4139 198.414 18.0524 200.816 18.9789Z" fill="black"/>
</svg>
