<svg width="63" height="62" viewBox="0 0 63 62" fill="none" xmlns="http://www.w3.org/2000/svg">
<path d="M18.48 0H44.52C54.44 0 62.5 8.06 62.5 17.98V44.02C62.5 48.7886 60.6057 53.3619 57.2338 56.7338C53.8619 60.1057 49.2886 62 44.52 62H18.48C8.56 62 0.5 53.94 0.5 44.02V17.98C0.5 13.2114 2.39432 8.63812 5.76622 5.26622C9.13812 1.89432 13.7114 0 18.48 0ZM17.86 6.2C14.9002 6.2 12.0616 7.37578 9.96869 9.46869C7.87578 11.5616 6.7 14.4002 6.7 17.36V44.64C6.7 50.809 11.691 55.8 17.86 55.8H45.14C48.0998 55.8 50.9384 54.6242 53.0313 52.5313C55.1242 50.4384 56.3 47.5998 56.3 44.64V17.36C56.3 11.191 51.309 6.2 45.14 6.2H17.86ZM47.775 10.85C48.8027 10.85 49.7883 11.2583 50.515 11.985C51.2417 12.7117 51.65 13.6973 51.65 14.725C51.65 15.7527 51.2417 16.7383 50.515 17.465C49.7883 18.1917 48.8027 18.6 47.775 18.6C46.7473 18.6 45.7617 18.1917 45.035 17.465C44.3083 16.7383 43.9 15.7527 43.9 14.725C43.9 13.6973 44.3083 12.7117 45.035 11.985C45.7617 11.2583 46.7473 10.85 47.775 10.85ZM31.5 15.5C35.6109 15.5 39.5533 17.133 42.4602 20.0398C45.367 22.9467 47 26.8891 47 31C47 35.1109 45.367 39.0533 42.4602 41.9602C39.5533 44.867 35.6109 46.5 31.5 46.5C27.3891 46.5 23.4467 44.867 20.5398 41.9602C17.633 39.0533 16 35.1109 16 31C16 26.8891 17.633 22.9467 20.5398 20.0398C23.4467 17.133 27.3891 15.5 31.5 15.5ZM31.5 21.7C29.0335 21.7 26.668 22.6798 24.9239 24.4239C23.1798 26.168 22.2 28.5335 22.2 31C22.2 33.4665 23.1798 35.832 24.9239 37.5761C26.668 39.3202 29.0335 40.3 31.5 40.3C33.9665 40.3 36.332 39.3202 38.0761 37.5761C39.8202 35.832 40.8 33.4665 40.8 31C40.8 28.5335 39.8202 26.168 38.0761 24.4239C36.332 22.6798 33.9665 21.7 31.5 21.7Z" fill="black"/>
</svg>
