<svg width="53" height="53" viewBox="0 0 53 53" fill="none" xmlns="http://www.w3.org/2000/svg">
<path fill-rule="evenodd" clip-rule="evenodd" d="M35.3327 19.8753C35.3327 22.2181 34.402 24.4649 32.7455 26.1214C31.0889 27.778 28.8421 28.7087 26.4993 28.7087C24.1566 28.7087 21.9098 27.778 20.2532 26.1214C18.5967 24.4649 17.666 22.2181 17.666 19.8753C17.666 17.5326 18.5967 15.2858 20.2532 13.6292C21.9098 11.9726 24.1566 11.042 26.4993 11.042C28.8421 11.042 31.0889 11.9726 32.7455 13.6292C34.402 15.2858 35.3327 17.5326 35.3327 19.8753ZM30.916 19.8753C30.916 21.0467 30.4507 22.1701 29.6224 22.9984C28.7941 23.8267 27.6707 24.292 26.4993 24.292C25.328 24.292 24.2046 23.8267 23.3763 22.9984C22.548 22.1701 22.0827 21.0467 22.0827 19.8753C22.0827 18.704 22.548 17.5806 23.3763 16.7523C24.2046 15.924 25.328 15.4587 26.4993 15.4587C27.6707 15.4587 28.7941 15.924 29.6224 16.7523C30.4507 17.5806 30.916 18.704 30.916 19.8753Z" fill="black"/>
<path fill-rule="evenodd" clip-rule="evenodd" d="M26.4997 2.2085C13.0841 2.2085 2.20801 13.0845 2.20801 26.5002C2.20801 39.9158 13.0841 50.7918 26.4997 50.7918C39.9153 50.7918 50.7913 39.9158 50.7913 26.5002C50.7913 13.0845 39.9153 2.2085 26.4997 2.2085ZM6.62467 26.5002C6.62467 31.1156 8.19922 35.3644 10.8382 38.7387C12.6919 36.3054 15.0829 34.3334 17.8245 32.9766C20.5662 31.6198 23.5842 30.9149 26.6432 30.9168C29.6628 30.9133 32.6434 31.5994 35.3576 32.9228C38.0718 34.2462 40.4479 36.172 42.3047 38.5532C44.2181 36.0437 45.5064 33.1146 46.0631 30.0083C46.6197 26.902 46.4286 23.7078 45.5057 20.69C44.5827 17.6722 42.9545 14.9176 40.7555 12.654C38.5566 10.3904 35.8503 8.68302 32.8605 7.67304C29.8707 6.66305 26.6834 6.37953 23.5623 6.84594C20.4412 7.31234 17.476 8.51526 14.912 10.3552C12.3481 12.1951 10.2592 14.619 8.81806 17.4266C7.37694 20.2341 6.62507 23.3444 6.62467 26.5002ZM26.4997 46.3752C21.9371 46.3826 17.5121 44.8129 13.974 41.932C15.398 39.8929 17.2936 38.228 19.4994 37.0791C21.7053 35.9302 24.1561 35.3314 26.6432 35.3335C29.0993 35.3314 31.5204 35.9153 33.7054 37.0368C35.8905 38.1583 37.7764 39.7851 39.2064 41.7818C35.641 44.7565 31.143 46.3824 26.4997 46.3752Z" fill="black"/>
</svg>
