<svg width="75" height="59" viewBox="0 0 75 59" fill="none" xmlns="http://www.w3.org/2000/svg">
<path d="M29.76 42.1715L49.0668 29.5501L29.76 16.9287V42.1715ZM72.7632 9.2296C73.2468 11.207 73.5816 13.8575 73.8048 17.2232C74.0652 20.5889 74.1768 23.4918 74.1768 26.0161L74.4 29.5501C74.4 38.7637 73.8048 45.5372 72.7632 49.8706C71.8332 53.657 69.6756 56.0972 66.3276 57.149C64.5792 57.6959 61.38 58.0745 56.4696 58.327C51.6336 58.6215 47.2068 58.7477 43.1148 58.7477L37.2 59.0001C21.6132 59.0001 11.904 58.327 8.0724 57.149C4.7244 56.0972 2.5668 53.657 1.6368 49.8706C1.1532 47.8932 0.8184 45.2427 0.5952 41.877C0.3348 38.5113 0.2232 35.6084 0.2232 33.0841L0 29.5501C0 20.3365 0.5952 13.563 1.6368 9.2296C2.5668 5.44317 4.7244 3.00303 8.0724 1.95124C9.8208 1.40431 13.02 1.02567 17.9304 0.77324C22.7664 0.47874 27.1932 0.352526 31.2852 0.352526L37.2 0.100098C52.7868 0.100098 62.496 0.773241 66.3276 1.95124C69.6756 3.00303 71.8332 5.44317 72.7632 9.2296Z" fill="black"/>
</svg>
